<svg width="60" height="60" viewBox="0 0 60 60" fill="none" xmlns="http://www.w3.org/2000/svg">
<path d="M13.6742 31.3257C12.9419 30.5935 12.9419 29.4065 13.6742 28.6742L18.6742 23.6742C19.4064 22.9419 20.5936 22.9419 21.3258 23.6742C22.0581 24.4064 22.0581 25.5935 21.3258 26.3257L19.5266 28.125H37.5C38.5355 28.125 39.375 28.9645 39.375 30C39.375 31.0355 38.5355 31.875 37.5 31.875H19.5266L21.3258 33.6742C22.0581 34.4065 22.0581 35.5935 21.3258 36.3257C20.5936 37.058 19.4064 37.058 18.6742 36.3257L13.6742 31.3257Z" fill="white"/>
<path fill-rule="evenodd" clip-rule="evenodd" d="M34.8633 3.125H37.6378C41.0568 3.12495 43.8125 3.1249 45.98 3.4163C48.2303 3.71885 50.125 4.36608 51.6297 5.87088C53.1345 7.37568 53.7817 9.27035 54.0842 11.5206C54.3757 13.6881 54.3755 16.4438 54.3755 19.8628V40.1372C54.3755 43.5562 54.3757 46.312 54.0842 48.4795C53.7817 50.7297 53.1345 52.6242 51.6297 54.1292C50.125 55.634 48.2303 56.2812 45.98 56.5837C43.8125 56.875 41.0568 56.875 37.6378 56.875H34.8633C31.4445 56.875 28.6885 56.875 26.5213 56.5837C24.2709 56.2812 22.3762 55.634 20.8714 54.1292C19.8741 53.1317 19.2517 51.961 18.8576 50.6245C16.4792 50.6215 14.4977 50.5952 12.8922 50.3795C10.9824 50.1227 9.3265 49.567 8.00478 48.2452C6.68303 46.9235 6.12733 45.2677 5.87055 43.3577C5.6249 41.5307 5.62495 39.2163 5.625 36.3843V23.6158C5.62495 20.7837 5.6249 18.4693 5.87055 16.6422C6.12733 14.7324 6.68303 13.0765 8.00478 11.7548C9.3265 10.433 10.9824 9.87733 12.8922 9.62055C14.4977 9.4047 16.4792 9.37855 18.8576 9.37543C19.2517 8.03905 19.8741 6.86823 20.8714 5.87088C22.3762 4.36608 24.2709 3.71885 26.5213 3.4163C28.6885 3.1249 31.4445 3.12495 34.8633 3.125ZM18.1299 42.5105C18.1389 44.1217 18.1655 45.5732 18.2571 46.8727C16.1709 46.8647 14.62 46.828 13.3919 46.663C11.8979 46.462 11.1653 46.1025 10.6564 45.5935C10.1476 45.0847 9.78798 44.3522 9.5871 42.858C9.379 41.3102 9.375 39.2492 9.375 36.25V23.75C9.375 20.7507 9.379 18.6899 9.5871 17.1419C9.78798 15.6479 10.1476 14.9152 10.6564 14.4064C11.1653 13.8975 11.8979 13.538 13.3919 13.3371C14.62 13.172 16.1709 13.1354 18.2571 13.1273C18.1655 14.4268 18.1389 15.8782 18.1299 17.4896C18.1242 18.5251 18.9589 19.3692 19.9945 19.375C21.03 19.3807 21.8741 18.5459 21.8799 17.5104C21.8951 14.7767 21.9661 12.839 22.2362 11.3684C22.4965 9.95135 22.9144 9.13115 23.5231 8.52253C24.215 7.83063 25.1865 7.3795 27.0208 7.13288C28.9093 6.87898 31.412 6.875 35.0005 6.875H37.5005C41.089 6.875 43.5918 6.87898 45.4803 7.13288C47.3148 7.3795 48.286 7.83063 48.978 8.52253C49.67 9.21443 50.121 10.1859 50.3678 12.0203C50.6215 13.9087 50.6255 16.4115 50.6255 20V40C50.6255 43.5885 50.6215 46.0912 50.3678 47.9797C50.121 49.8142 49.67 50.7855 48.978 51.4775C48.286 52.1695 47.3148 52.6205 45.4803 52.8672C43.5918 53.121 41.089 53.125 37.5005 53.125H35.0005C31.412 53.125 28.9093 53.121 27.0208 52.8672C25.1865 52.6205 24.215 52.1695 23.5231 51.4775C22.9144 50.8687 22.4965 50.0487 22.2362 48.6317C21.9661 47.161 21.8951 45.2232 21.8799 42.4895C21.8741 41.454 21.03 40.6192 19.9945 40.625C18.9589 40.6307 18.1242 41.475 18.1299 42.5105Z" fill="white"/>
</svg>
