<svg width="600" height="586" viewBox="0 0 600 586" fill="none" xmlns="http://www.w3.org/2000/svg">
<g clip-path="url(#clip0_57_345)">
<path d="M185.282 429.771H110.125C108.23 429.771 106.688 428.229 106.688 426.334C106.688 424.439 108.23 422.898 110.125 422.898H185.282C187.177 422.898 188.718 424.439 188.718 426.334C188.718 428.229 187.177 429.771 185.282 429.771Z" fill="#BA181B"/>
<path d="M51.0547 448.165C51.0547 448.783 51.5504 449.278 52.1677 449.278H243.238C243.855 449.278 244.351 448.783 244.351 448.165C244.351 447.548 243.855 447.052 243.238 447.052H52.1677C51.5504 447.052 51.0547 447.548 51.0547 448.165Z" fill="#3F3D56"/>
<path d="M454.183 223.911C487.759 223.911 514.977 196.693 514.977 163.118C514.977 129.542 487.759 102.324 454.183 102.324C420.608 102.324 393.39 129.542 393.39 163.118C393.39 196.693 420.608 223.911 454.183 223.911Z" fill="#FF6884"/>
<path d="M0 524.986C0 525.603 0.495731 526.099 1.11305 526.099H489.605C490.223 526.099 490.718 525.603 490.718 524.986C490.718 524.369 490.223 523.873 489.605 523.873H1.11305C0.495731 523.873 0 524.369 0 524.986Z" fill="#3F3D56"/>
<path d="M7.06556 449.824L5.50293 448.112L158.015 308.944L212.962 333.576L272.297 231.823L321.046 208.325L366.214 283.604C390.599 220.473 451.755 154.423 525.035 87.4116L526.838 88.8712C458.108 154.673 399.303 220.773 365.931 287.639L324.152 217.804C322.179 214.505 318.031 213.231 314.545 214.852C287.899 227.251 265.672 247.49 250.838 272.862L213.671 336.434L205.186 332.631C176.811 319.912 143.594 325.243 120.624 346.202L7.06556 449.824Z" fill="#3F3D56"/>
<path d="M528.473 100.081L526.158 100.242L522.422 92.1449L514.056 90.4458L513.731 88.1475L527.521 86.188L528.473 100.081Z" fill="#3F3D56"/>
<path d="M290.58 149.628L298.778 118.111L330.716 116.575L340.271 160.019L290.58 149.628Z" fill="#FFB6B6"/>
<path opacity="0.1" d="M290.58 149.628L298.778 118.111L330.716 116.575L340.271 160.019L290.58 149.628Z" fill="black"/>
<path d="M311.595 135.749C332.885 135.749 350.144 118.49 350.144 97.1995C350.144 75.9094 332.885 58.6504 311.595 58.6504C290.305 58.6504 273.046 75.9094 273.046 97.1995C273.046 118.49 290.305 135.749 311.595 135.749Z" fill="#FFB6B6"/>
<path d="M332.865 105.359C332.865 105.359 318.22 76.3441 301.062 78.0192C283.904 79.6944 274.865 81.7317 274.865 81.7317C274.865 81.7317 269.772 59.1334 293.751 50.441C293.751 50.441 263.262 20.3865 299.561 5.64347C335.861 -9.09959 356.173 9.70331 356.173 9.70331C356.173 9.70331 383.042 36.5269 349.202 56.5751C349.202 56.5751 374.33 90.3752 343.906 118.234C343.906 118.234 350.711 95.6902 343.611 99.8477C336.511 104.005 332.865 105.359 332.865 105.359Z" fill="#2F2E41"/>
<path d="M269.063 309.03L263.935 313.945L226.891 393.374L222.836 524.756H285.075L314.271 459.694L333.943 524.128H389.905L402.878 407.161L368.005 324.439L269.063 309.03Z" fill="#2F2E41"/>
<path d="M333.537 146.425H291.971L246.76 170.755L257.303 217.793C257.303 217.793 254.87 246.178 260.547 267.264C266.224 288.35 263.791 315.924 263.791 315.924L368.004 324.439L371.248 228.741L369.626 164.672L333.537 146.425Z" fill="#E6E6E6"/>
<path d="M253.654 171.161C253.654 171.161 228.513 171.972 224.458 188.192C220.403 204.412 217.159 287.945 217.159 287.945C217.159 287.945 219.592 337.511 246.761 313.944C273.929 290.378 271.496 219.01 271.496 219.01L253.654 171.161Z" fill="#E6E6E6"/>
<path d="M497.506 584.922H349.348C344.33 584.922 340.248 580.84 340.248 575.822V422.661C340.248 417.643 344.33 413.561 349.348 413.561H497.506C502.524 413.561 506.606 417.643 506.606 422.661V575.822C506.606 580.84 502.524 584.922 497.506 584.922Z" fill="white"/>
<path d="M497.506 585.857H349.348C343.814 585.857 339.312 581.356 339.312 575.822V422.661C339.312 417.127 343.814 412.625 349.348 412.625H497.506C503.039 412.625 507.541 417.127 507.541 422.661V575.822C507.541 581.356 503.039 585.857 497.506 585.857ZM349.348 414.496C344.846 414.496 341.183 418.159 341.183 422.661V575.822C341.183 580.324 344.846 583.987 349.348 583.987H497.506C502.008 583.987 505.671 580.324 505.671 575.822V422.661C505.671 418.159 502.008 414.496 497.506 414.496H349.348Z" fill="#3F3D56"/>
<path d="M429.274 544.685H417.062C415.576 544.685 414.366 543.752 414.366 542.604V490.03C414.366 488.882 415.576 487.949 417.062 487.949H429.274C430.76 487.949 431.97 488.882 431.97 490.03V542.604C431.97 543.752 430.76 544.685 429.274 544.685Z" fill="#BA181B"/>
<path d="M388.902 513.703C387.701 513.703 386.724 514.457 386.724 515.384V542.545C386.724 543.472 387.701 544.227 388.902 544.227H401.113C402.314 544.227 403.292 543.472 403.292 542.545V515.384C403.292 514.457 402.314 513.703 401.113 513.703H388.902Z" fill="#BA181B"/>
<path d="M457.434 544.685H445.223C443.736 544.685 442.526 543.751 442.526 542.604V456.444C442.526 455.297 443.736 454.363 445.223 454.363H457.434C458.921 454.363 460.13 455.297 460.13 456.444V542.604C460.13 543.751 458.921 544.685 457.434 544.685Z" fill="#BA181B"/>
<path d="M194.657 167.017H180.708C179.009 167.017 177.628 165.95 177.628 164.639V104.585C177.628 103.274 179.009 102.208 180.708 102.208H194.657C196.355 102.208 197.736 103.274 197.736 104.585V164.639C197.736 165.95 196.355 167.017 194.657 167.017Z" fill="#BA181B"/>
<path d="M148.541 131.626C147.169 131.626 146.053 132.488 146.053 133.547V164.572C146.053 165.631 147.169 166.493 148.541 166.493H162.49C163.862 166.493 164.978 165.631 164.978 164.572V133.547C164.978 132.488 163.862 131.626 162.49 131.626H148.541Z" fill="#BA181B"/>
<path d="M226.824 167.017H212.875C211.176 167.017 209.795 165.95 209.795 164.639V66.2206C209.795 64.9097 211.176 63.8433 212.875 63.8433H226.824C228.522 63.8433 229.903 64.9097 229.903 66.2206V164.639C229.903 165.95 228.522 167.017 226.824 167.017Z" fill="#BA181B"/>
<path d="M400.713 435.846C407.938 435.154 412.913 425.391 411.826 414.035C411.454 409.492 410 405.105 407.585 401.24L406.192 388.387L406.405 388.323L409.905 327.382C410.719 313.212 405.11 299.288 394.304 290.087C387.875 284.614 381.017 281.843 376.607 288.758C369.29 300.234 378.768 347.538 384.992 374.432L387.406 403.172C385.766 407.426 385.17 412.011 385.666 416.543C386.751 427.895 393.489 436.537 400.713 435.846Z" fill="#FFB6B6"/>
<path d="M360.706 166.295C360.706 166.295 381.792 158.185 391.524 182.515C401.256 206.845 411.799 326.873 411.799 326.873L362.328 317.952L360.706 166.295Z" fill="#E6E6E6"/>
<path d="M71.168 154.394H42.7754C40.8806 154.394 39.3389 152.853 39.3389 150.958C39.3389 149.063 40.8806 147.522 42.7754 147.522H71.168C73.0628 147.522 74.6038 149.063 74.6038 150.958C74.6038 152.853 73.0628 154.394 71.168 154.394Z" fill="#E6E6E6"/>
<path d="M71.168 105.685H42.7754C40.8806 105.685 39.3389 104.144 39.3389 102.249C39.3389 100.354 40.8806 98.813 42.7754 98.813H71.168C73.0628 98.813 74.6038 100.354 74.6038 102.249C74.6038 104.144 73.0628 105.685 71.168 105.685Z" fill="#E6E6E6"/>
<path d="M71.168 70.5584H42.7754C40.8806 70.5584 39.3389 69.0166 39.3389 67.1218C39.3389 65.2271 40.8806 63.686 42.7754 63.686H71.168C73.0628 63.686 74.6038 65.2271 74.6038 67.1218C74.6038 69.0166 73.0628 70.5584 71.168 70.5584Z" fill="#E6E6E6"/>
<path d="M38.2002 167.187C38.2002 167.804 38.6959 168.3 39.3132 168.3H230.383C231.001 168.3 231.496 167.804 231.496 167.187C231.496 166.569 231.001 166.074 230.383 166.074H39.3132C38.6959 166.074 38.2002 166.569 38.2002 167.187Z" fill="#3F3D56"/>
<path d="M406.704 455.256C406.704 455.873 407.2 456.369 407.817 456.369H598.887C599.505 456.369 600 455.873 600 455.256C600 454.638 599.505 454.143 598.887 454.143H407.817C407.2 454.143 406.704 454.638 406.704 455.256Z" fill="#3F3D56"/>
<path d="M350.586 545.979C350.586 546.596 351.082 547.092 351.699 547.092H542.769C543.386 547.092 543.882 546.596 543.882 545.979C543.882 545.361 543.386 544.866 542.769 544.866H351.699C351.082 544.866 350.586 545.361 350.586 545.979Z" fill="#3F3D56"/>
<path d="M222.101 161.56C214.876 162.252 209.901 172.014 210.988 183.371C211.36 187.913 212.814 192.3 215.229 196.166L216.622 209.018L216.409 209.082L212.909 270.024C212.095 284.194 217.704 298.117 228.51 307.318C234.939 312.792 241.797 315.563 246.207 308.647C253.524 297.172 244.046 249.867 237.822 222.973L235.408 194.234C237.048 189.98 237.644 185.395 237.148 180.863C236.063 169.51 229.326 160.868 222.101 161.56Z" fill="#FFB6B6"/>
</g>
<defs>
<clipPath id="clip0_57_345">
<rect width="600" height="585.857" fill="white"/>
</clipPath>
</defs>
</svg>
