<svg width="65" height="852" viewBox="0 0 65 852" fill="none" xmlns="http://www.w3.org/2000/svg">
<path fill-rule="evenodd" clip-rule="evenodd" d="M26.3733 852L27.9828 836.419C29.5922 820.13 32.8111 788.968 24.7639 757.097C16.7167 725.935 -2.86491 694.065 0.35398 662.903C3.57287 631.032 29.5922 599.87 31.2017 568C32.8111 536.13 10.0106 504.968 8.4012 473.097C6.79176 441.935 26.3733 410.065 36.03 378.903C45.6867 347.032 45.6867 315.87 42.4678 284C39.2489 252.13 32.8111 220.968 34.4206 189.097C36.03 157.935 45.6867 126.065 50.515 94.9028C55.3433 63.0324 55.3433 31.8703 55.3433 15.5811V0H65L65 15.5811C65 31.8703 65 63.0324 65 94.9028C65 126.065 65 157.935 65 189.097C65 220.968 65 252.13 65 284C65 315.87 65 347.032 65 378.903C65 410.065 65 441.935 65 473.097C65 504.968 65 536.13 65 568C65 599.87 65 631.032 65 662.903C65 694.065 65 725.935 65 757.097C65 788.968 65 820.13 65 836.419V852H26.3733Z" fill="#BA181B" fill-opacity="0.5"/>
</svg>
