<svg width="100" height="100" viewBox="0 0 100 100" fill="none" xmlns="http://www.w3.org/2000/svg">
<path fill-rule="evenodd" clip-rule="evenodd" d="M50 100C77.614 100 100 77.614 100 50C100 22.3857 77.614 0 50 0C22.3857 0 0 22.3857 0 50C0 77.614 22.3857 100 50 100ZM53.75 35C53.75 32.929 52.071 31.25 50 31.25C47.929 31.25 46.25 32.929 46.25 35V46.25H35C32.929 46.25 31.25 47.929 31.25 50C31.25 52.071 32.929 53.75 35 53.75H46.25V65C46.25 67.071 47.929 68.75 50 68.75C52.071 68.75 53.75 67.071 53.75 65V53.75H65C67.071 53.75 68.75 52.071 68.75 50C68.75 47.929 67.071 46.25 65 46.25H53.75V35Z" fill="#232323"/>
</svg>
