<svg width="601" height="492" viewBox="0 0 601 492" fill="none" xmlns="http://www.w3.org/2000/svg">
<path d="M498.475 25.775L587.55 204.675C589.125 207.025 589.9 210.15 590.675 212.5C596.15 226.575 600.05 246.1 600.05 258.6V343.75C600.05 370.325 582.075 392.2 557.075 398.45V448.45C557.075 472.675 537.55 491.425 514.1 491.425C489.875 491.425 471.125 472.675 471.125 448.45V400H128.925V448.45C128.925 472.675 110.175 491.425 85.95 491.425C62.5 491.425 42.975 472.675 42.975 448.45V398.45C17.975 392.2 0 370.325 0 343.75V258.6C0 246.1 3.9 226.575 9.375 212.5C10.15 210.15 10.95 207.025 12.5 204.675L101.575 25.775C108.6 12.5 127.35 0 142.975 0H457.05C472.675 0 491.45 12.5 498.475 25.775ZM138.3 79.675L90.65 188.275C88.3 192.175 88.3 196.875 88.3 200H511.75C511.75 196.875 511.75 192.175 509.4 188.275L461.75 79.675C455.5 65.6 436.75 53.1 421.9 53.1H178.15C163.3 53.1 144.55 65.6 138.3 79.675ZM117.225 343.725C142.225 343.725 161.75 323.4 161.75 297.625C161.75 272.625 142.225 253.1 117.225 253.1C92.225 253.1 71.125 272.625 71.125 297.625C71.125 323.4 92.225 343.725 117.225 343.725ZM482.85 343.725C507.85 343.725 528.95 323.4 528.95 297.625C528.95 272.625 507.85 253.1 482.85 253.1C457.85 253.1 438.325 272.625 438.325 297.625C438.325 323.4 457.85 343.725 482.85 343.725Z" fill="white"/>
</svg>
