<svg width="20" height="20" viewBox="0 0 20 20" fill="none" xmlns="http://www.w3.org/2000/svg">
<g clip-path="url(#clip0_317_358)">
<path fill-rule="evenodd" clip-rule="evenodd" d="M5 16C4.448 16 4 15.552 4 15C4 14.448 4.448 14 5 14C5.552 14 6 14.448 6 15C6 15.552 5.552 16 5 16ZM15 14C15.552 14 16 14.448 16 15C16 15.552 15.552 16 15 16C14.448 16 14 15.552 14 15C14 14.448 14.448 14 15 14ZM6.602 2H13.398C13.896 2 14.318 2.36589 14.388 2.85889L15.694 12H4.306L5.612 2.85889C5.682 2.36589 6.104 2 6.602 2ZM20 9C20 8.448 19.552 8 19 8H17.143L16.245 1.7168C16.105 0.731797 15.261 0 14.265 0H5.735C4.739 0 3.895 0.731797 3.755 1.7168L2.857 8H1C0.448 8 0 8.448 0 9C0 9.552 0.448 10 1 10H2.571L2.286 12H2C0.895 12 0 12.895 0 14V16C0 17.105 0.895 18 2 18V19C2 19.552 2.448 20 3 20H5C5.552 20 6 19.552 6 19V18H14V19C14 19.552 14.448 20 15 20H17C17.552 20 18 19.552 18 19V18C19.105 18 20 17.105 20 16V14C20 12.895 19.105 12 18 12H17.714L17.429 10H19C19.552 10 20 9.552 20 9Z" fill="black"/>
</g>
<defs>
<clipPath id="clip0_317_358">
<rect width="20" height="20" fill="white"/>
</clipPath>
</defs>
</svg>
