<svg width="70" height="70" viewBox="0 0 70 70" fill="none" xmlns="http://www.w3.org/2000/svg">
<rect width="70" height="70" rx="35" fill="white"/>
<path d="M45.2528 36.0134L34.9997 45.8082L24.7465 36.0134C19.0351 39.794 15.208 46.6156 15.208 54.4322H54.7913C54.7913 46.6156 50.9643 39.794 45.2528 36.0134Z" fill="black"/>
<path d="M35 37.1841C38.6979 37.1841 42.0094 35.5132 44.2979 32.8721C46.2823 30.5824 47.5 27.5662 47.5 24.2481C47.5 17.1041 41.9031 11.312 35 11.312C28.0969 11.312 22.5 17.1041 22.5 24.2481C22.5 27.5662 23.7177 30.5824 25.7021 32.8721C27.9906 35.5132 31.3021 37.1841 35 37.1841Z" fill="black"/>
</svg>
