<svg width="668" height="668" viewBox="0 0 668 668" fill="none" xmlns="http://www.w3.org/2000/svg">
<path d="M634 234H567.333V167.333H634V234ZM634 367.333H567.333V434H634V367.333ZM434 167.333H167.333V300.667H434V167.333ZM567.333 600.667V67.3333C567.333 58.4928 563.821 50.0143 557.57 43.7631C551.319 37.5119 542.841 34 534 34H67.3333C58.4928 34 50.0143 37.5119 43.7631 43.7631C37.5119 50.0143 34 58.4928 34 67.3333V600.667C34 609.507 37.5119 617.986 43.7631 624.237C50.0143 630.488 58.4928 634 67.3333 634H534C542.841 634 551.319 630.488 557.57 624.237C563.821 617.986 567.333 609.507 567.333 600.667Z" stroke="black" stroke-width="66.6667" stroke-linecap="round" stroke-linejoin="round"/>
</svg>
