<svg width="800" height="800" viewBox="0 0 800 800" fill="none" xmlns="http://www.w3.org/2000/svg">
<path d="M700 300H633.333V233.333H700V300ZM700 433.333H633.333V500H700V433.333ZM500 233.333H233.333V366.667H500V233.333ZM633.333 666.667V133.333C633.333 124.493 629.821 116.014 623.57 109.763C617.319 103.512 608.841 100 600 100H133.333C124.493 100 116.014 103.512 109.763 109.763C103.512 116.014 100 124.493 100 133.333V666.667C100 675.507 103.512 683.986 109.763 690.237C116.014 696.488 124.493 700 133.333 700H600C608.841 700 617.319 696.488 623.57 690.237C629.821 683.986 633.333 675.507 633.333 666.667Z" stroke="white" stroke-width="66.6667" stroke-linecap="round" stroke-linejoin="round"/>
</svg>
