<svg width="20" height="20" viewBox="0 0 20 20" fill="none" xmlns="http://www.w3.org/2000/svg">
<path d="M19.6326 15.6666L15.0689 11.5172C14.8532 11.3211 14.5697 11.2166 14.2783 11.2256C13.9869 11.2346 13.7105 11.3565 13.5073 11.5655L10.8207 14.3284C10.174 14.2049 8.87396 13.7996 7.53573 12.4647C6.1975 11.1254 5.79221 9.82197 5.67209 9.17979L8.43275 6.4921C8.64203 6.28904 8.76409 6.01252 8.7731 5.72105C8.78211 5.42959 8.67736 5.14606 8.48103 4.93046L4.33273 0.367893C4.13631 0.151616 3.86332 0.0204286 3.57173 0.00219123C3.28014 -0.0160462 2.99292 0.0801035 2.77109 0.27022L0.334875 2.35952C0.140776 2.55433 0.0249251 2.81359 0.00929797 3.08814C-0.0075422 3.36881 -0.328628 10.0173 4.82671 15.1749C9.32416 19.6712 14.9578 20.0002 16.5093 20.0002C16.7361 20.0002 16.8753 19.9934 16.9123 19.9912C17.1868 19.9758 17.446 19.8594 17.6398 19.6645L19.728 17.2271C19.9189 17.006 20.0157 16.719 19.9979 16.4275C19.9801 16.1359 19.849 15.8629 19.6326 15.6666Z" fill="white"/>
</svg>
