<svg width="711" height="712" viewBox="0 0 711 712" fill="none" xmlns="http://www.w3.org/2000/svg">
<path d="M526.402 0H433.926C320.11 0 248.974 71.1354 248.974 184.952V329.001H406.895L333.27 255.376C327.934 250.041 325.445 243.283 325.445 236.525C325.445 229.767 327.934 223.01 333.27 217.674C343.584 207.36 360.657 207.36 370.971 217.674L490.123 336.826C500.438 347.141 500.438 364.213 490.123 374.528L370.971 493.68C360.657 503.995 343.584 503.995 333.27 493.68C322.955 483.365 322.955 466.293 333.27 455.978L406.895 382.353H248.974V526.402C248.974 640.219 320.11 711.354 433.926 711.354H526.047C639.863 711.354 710.999 640.219 710.999 526.402V184.952C711.354 71.1354 640.219 0 526.402 0Z" fill="white"/>
<path d="M26.6758 329.001C12.093 329.001 0 341.094 0 355.677C0 370.26 12.093 382.353 26.6758 382.353H248.974V329.001H26.6758Z" fill="white"/>
</svg>
