<svg width="20" height="22" viewBox="0 0 20 22" fill="none" xmlns="http://www.w3.org/2000/svg">
<path d="M10 0C8.90122 0 7.82711 0.325828 6.9135 0.93628C5.99989 1.54673 5.28782 2.41439 4.86734 3.42954C4.44685 4.44468 4.33683 5.56172 4.55119 6.63939C4.76556 7.71706 5.29467 8.70697 6.07163 9.48393C6.84859 10.2609 7.83849 10.79 8.91617 11.0044C9.99384 11.2187 11.1109 11.1087 12.126 10.6882C13.1412 10.2677 14.0088 9.55566 14.6193 8.64206C15.2297 7.72845 15.5556 6.65434 15.5556 5.55556C15.5556 4.08213 14.9702 2.66905 13.9284 1.62718C12.8865 0.585316 11.4734 0 10 0ZM10 8.88889C9.34073 8.88889 8.69626 8.69339 8.1481 8.32712C7.59994 7.96085 7.17269 7.44025 6.9204 6.83117C6.66811 6.22208 6.6021 5.55186 6.73072 4.90525C6.85933 4.25865 7.1768 3.66471 7.64298 3.19853C8.10915 2.73236 8.7031 2.41489 9.3497 2.28627C9.9963 2.15765 10.6665 2.22367 11.2756 2.47596C11.8847 2.72825 12.4053 3.15549 12.7716 3.70365C13.1378 4.25182 13.3333 4.89628 13.3333 5.55556C13.3333 6.43961 12.9821 7.28746 12.357 7.91258C11.7319 8.5377 10.8841 8.88889 10 8.88889ZM20 21.1111V20C20 17.9372 19.1806 15.9589 17.7219 14.5003C16.2633 13.0417 14.285 12.2222 12.2222 12.2222H7.77778C5.71498 12.2222 3.73667 13.0417 2.27806 14.5003C0.819442 15.9589 0 17.9372 0 20V21.1111H2.22222V20C2.22222 18.5266 2.80754 17.1135 3.84941 16.0716C4.89128 15.0298 6.30435 14.4444 7.77778 14.4444H12.2222C13.6956 14.4444 15.1087 15.0298 16.1506 16.0716C17.1925 17.1135 17.7778 18.5266 17.7778 20V21.1111H20Z" fill="white"/>
</svg>
