<svg width="717" height="584" viewBox="0 0 717 584" fill="none" xmlns="http://www.w3.org/2000/svg">
<path d="M258.333 258.333C295.152 258.333 325 228.486 325 191.667C325 154.848 295.152 125 258.333 125C221.514 125 191.667 154.848 191.667 191.667C191.667 228.486 221.514 258.333 258.333 258.333Z" stroke="black" stroke-width="50"/>
<path d="M391.667 391.667C391.667 428.487 391.667 458.333 258.333 458.333C125 458.333 125 428.487 125 391.667C125 354.847 184.695 325 258.333 325C331.97 325 391.667 354.847 391.667 391.667Z" stroke="black" stroke-width="50"/>
<path d="M691.667 291.667C691.667 417.373 691.667 480.23 652.613 519.28C613.563 558.333 550.707 558.333 425 558.333H291.667C165.959 558.333 103.105 558.333 64.0523 519.28C25 480.23 25 417.373 25 291.667C25 165.959 25 103.105 64.0523 64.0523C103.105 25 165.959 25 291.667 25H425C550.707 25 613.563 25 652.613 64.0523C668.267 79.706 677.647 99.1833 683.267 125" stroke="black" stroke-width="50" stroke-linecap="round"/>
<path d="M591.667 291.667H458.333" stroke="black" stroke-width="50" stroke-linecap="round"/>
<path d="M591.667 191.667H425" stroke="black" stroke-width="50" stroke-linecap="round"/>
<path d="M591.667 391.667H491.667" stroke="black" stroke-width="50" stroke-linecap="round"/>
</svg>
