<svg width="28" height="29" viewBox="0 0 28 29" fill="none" xmlns="http://www.w3.org/2000/svg">
<g filter="url(#filter0_d_164_2655)">
<path d="M14 0.452637C12.9012 0.452637 11.8271 0.761315 10.9135 1.33964C9.99989 1.91796 9.28782 2.73995 8.86734 3.70167C8.44685 4.66339 8.33683 5.72163 8.55119 6.74259C8.76556 7.76354 9.29467 8.70134 10.0716 9.43741C10.8486 10.1735 11.8385 10.6747 12.9162 10.8778C13.9938 11.0809 15.1109 10.9767 16.126 10.5783C17.1412 10.18 18.0088 9.50537 18.6193 8.63985C19.2297 7.77433 19.5556 6.75675 19.5556 5.71579C19.5556 4.31992 18.9702 2.98121 17.9284 1.99418C16.8865 1.00715 15.4734 0.452637 14 0.452637ZM14 8.87369C13.3407 8.87369 12.6963 8.68848 12.1481 8.34149C11.5999 7.99449 11.1727 7.5013 10.9204 6.92427C10.6681 6.34724 10.6021 5.71229 10.7307 5.09972C10.8593 4.48715 11.1768 3.92447 11.643 3.48283C12.1092 3.04119 12.7031 2.74043 13.3497 2.61858C13.9963 2.49673 14.6665 2.55927 15.2756 2.79828C15.8847 3.03729 16.4053 3.44205 16.7716 3.96136C17.1378 4.48068 17.3333 5.09122 17.3333 5.71579C17.3333 6.55332 16.9821 7.35654 16.357 7.94876C15.7319 8.54098 14.8841 8.87369 14 8.87369ZM24 20.4526V19.4C24 17.4458 23.1806 15.5716 21.7219 14.1897C20.2633 12.8079 18.285 12.0316 16.2222 12.0316H11.7778C9.71498 12.0316 7.73667 12.8079 6.27806 14.1897C4.81944 15.5716 4 17.4458 4 19.4V20.4526H6.22222V19.4C6.22222 18.0041 6.80754 16.6654 7.84941 15.6784C8.89128 14.6914 10.3044 14.1368 11.7778 14.1368H16.2222C17.6956 14.1368 19.1087 14.6914 20.1506 15.6784C21.1925 16.6654 21.7778 18.0041 21.7778 19.4V20.4526H24Z" fill="white"/>
<path d="M11.1809 1.76211C12.0132 1.23529 12.9943 0.952637 14 0.952637C15.3493 0.952637 16.6382 1.46068 17.5845 2.35716C18.5299 3.25277 19.0556 4.46152 19.0556 5.7158C19.0556 6.65165 18.7628 7.56889 18.2107 8.35167C17.6583 9.13481 16.8703 9.74912 15.9434 10.1129C15.0162 10.4767 13.9946 10.5723 13.0088 10.3865C12.023 10.2007 11.121 9.74277 10.4155 9.07443C9.71032 8.40637 9.23342 7.55856 9.04052 6.63984C8.84768 5.72136 8.94637 4.76901 9.32546 3.90197C9.70471 3.03457 10.3489 2.28877 11.1809 1.76211ZM11.8807 8.76396C12.5102 9.16246 13.2477 9.37369 14 9.37369C15.0082 9.37369 15.9802 8.99452 16.7009 8.31174C17.4225 7.6281 17.8333 6.69492 17.8333 5.7158C17.8333 4.98612 17.6048 4.27524 17.1802 3.67318C16.7558 3.07149 16.1555 2.60645 15.4583 2.33283C14.7612 2.05929 13.9955 1.98808 13.2571 2.12723C12.5186 2.26639 11.8368 2.61048 11.2991 3.11985C10.7611 3.62949 10.3915 4.28217 10.2414 4.99698C10.0913 5.71202 10.1686 6.45286 10.4623 7.12457C10.7558 7.79591 11.2509 8.3653 11.8807 8.76396ZM23.5 19.4V19.9526H22.2778V19.4C22.2778 17.8625 21.6328 16.3939 20.4945 15.3154C19.357 14.2378 17.8198 13.6368 16.2222 13.6368H11.7778C10.1802 13.6368 8.64299 14.2378 7.50553 15.3154C6.36716 16.3939 5.72222 17.8625 5.72222 19.4V19.9526H4.5V19.4C4.5 17.5874 5.25982 15.8431 6.62193 14.5527C7.98496 13.2614 9.83913 12.5316 11.7778 12.5316H16.2222C18.1609 12.5316 20.015 13.2614 21.3781 14.5527C22.7402 15.8431 23.5 17.5874 23.5 19.4Z" stroke="black"/>
</g>
<defs>
<filter id="filter0_d_164_2655" x="0" y="0.452637" width="28" height="28" filterUnits="userSpaceOnUse" color-interpolation-filters="sRGB">
<feFlood flood-opacity="0" result="BackgroundImageFix"/>
<feColorMatrix in="SourceAlpha" type="matrix" values="0 0 0 0 0 0 0 0 0 0 0 0 0 0 0 0 0 0 127 0" result="hardAlpha"/>
<feOffset dy="4"/>
<feGaussianBlur stdDeviation="2"/>
<feComposite in2="hardAlpha" operator="out"/>
<feColorMatrix type="matrix" values="0 0 0 0 0 0 0 0 0 0 0 0 0 0 0 0 0 0 0.25 0"/>
<feBlend mode="normal" in2="BackgroundImageFix" result="effect1_dropShadow_164_2655"/>
<feBlend mode="normal" in="SourceGraphic" in2="effect1_dropShadow_164_2655" result="shape"/>
</filter>
</defs>
</svg>
