<svg width="574" height="586" viewBox="0 0 574 586" fill="none" xmlns="http://www.w3.org/2000/svg">
<g clip-path="url(#clip0_124_449)">
<path d="M177.253 429.875H105.353C103.54 429.875 102.065 428.333 102.065 426.438C102.065 424.543 103.54 423.001 105.353 423.001H177.253C179.066 423.001 180.54 424.543 180.54 426.438C180.54 428.333 179.066 429.875 177.253 429.875Z" fill="white"/>
<path d="M48.8428 448.274C48.8428 448.892 49.317 449.388 49.9076 449.388H232.698C233.289 449.388 233.763 448.892 233.763 448.274C233.763 447.657 233.289 447.161 232.698 447.161H49.9076C49.317 447.161 48.8428 447.657 48.8428 448.274Z" fill="#3F3D56"/>
<path d="M434.502 223.966C466.622 223.966 492.661 196.741 492.661 163.157C492.661 129.574 466.622 102.349 434.502 102.349C402.381 102.349 376.342 129.574 376.342 163.157C376.342 196.741 402.381 223.966 434.502 223.966Z" fill="white"/>
<path d="M0 525.114C0 525.731 0.47425 526.227 1.06482 526.227H468.389C468.98 526.227 469.454 525.731 469.454 525.114C469.454 524.496 468.98 524 468.389 524H1.06482C0.47425 524 0 524.496 0 525.114Z" fill="#3F3D56"/>
<path d="M6.76006 449.934L5.26514 448.221L151.168 309.019L203.734 333.657L260.498 231.879L307.135 208.375L350.345 283.672C373.674 220.526 432.18 154.461 502.285 87.4326L504.009 88.8926C438.257 154.71 382.001 220.827 350.074 287.709L310.106 217.857C308.218 214.557 304.25 213.282 300.916 214.904C275.424 227.306 254.16 247.55 239.969 272.928L204.412 336.516L196.296 332.712C169.15 319.989 137.372 325.321 115.398 346.286L6.76006 449.934Z" fill="#3F3D56"/>
<path d="M505.574 100.106L503.359 100.267L499.784 92.1674L491.781 90.4678L491.471 88.169L504.662 86.209L505.574 100.106Z" fill="#3F3D56"/>
<path d="M277.988 149.664L285.831 118.14L316.384 116.603L325.525 160.058L277.988 149.664Z" fill="#FFB6B6"/>
<path opacity="0.1" d="M277.988 149.664L285.831 118.14L316.384 116.603L325.525 160.058L277.988 149.664Z" fill="black"/>
<path d="M298.093 135.782C318.46 135.782 334.971 118.518 334.971 97.2231C334.971 75.9278 318.46 58.6646 298.093 58.6646C277.725 58.6646 261.214 75.9278 261.214 97.2231C261.214 118.518 277.725 135.782 298.093 135.782Z" fill="#FFB6B6"/>
<path d="M318.44 105.385C318.44 105.385 304.43 76.3626 288.016 78.0382C271.601 79.7138 262.954 81.7516 262.954 81.7516C262.954 81.7516 258.081 59.1478 281.021 50.4533C281.021 50.4533 251.854 20.3915 286.58 5.64485C321.307 -9.1018 340.739 9.70567 340.739 9.70567C340.739 9.70567 366.443 36.5358 334.069 56.5888C334.069 56.5888 358.108 90.3972 329.003 118.263C329.003 118.263 335.513 95.7135 328.72 99.872C321.928 104.031 318.44 105.385 318.44 105.385Z" fill="#2F2E41"/>
<path d="M257.403 309.105L252.498 314.021L217.059 393.47L213.18 524.884H272.722L300.653 459.806L319.472 524.256H373.009L385.42 407.26L352.058 324.518L257.403 309.105Z" fill="#2F2E41"/>
<path d="M319.084 146.46H279.32L236.067 170.796L246.154 217.846C246.154 217.846 243.826 246.238 249.257 267.329C254.688 288.42 252.36 316.001 252.36 316.001L352.058 324.518L355.161 228.797L353.61 164.712L319.084 146.46Z" fill="#E6E6E6"/>
<path d="M242.662 171.202C242.662 171.202 218.611 172.013 214.731 188.237C210.852 204.461 207.749 288.015 207.749 288.015C207.749 288.015 210.076 337.593 236.067 314.021C262.058 290.448 259.731 219.063 259.731 219.063L242.662 171.202Z" fill="#E6E6E6"/>
<path d="M475.947 585.064H334.209C329.409 585.064 325.503 580.982 325.503 575.962V422.764C325.503 417.744 329.409 413.662 334.209 413.662H475.947C480.748 413.662 484.653 417.744 484.653 422.764V575.962C484.653 580.982 480.748 585.064 475.947 585.064Z" fill="white"/>
<path d="M475.947 586H334.209C328.915 586 324.608 581.497 324.608 575.962V422.764C324.608 417.229 328.915 412.726 334.209 412.726H475.947C481.24 412.726 485.547 417.229 485.547 422.764V575.962C485.547 581.497 481.24 586 475.947 586ZM334.209 414.597C329.902 414.597 326.398 418.261 326.398 422.764V575.962C326.398 580.465 329.902 584.129 334.209 584.129H475.947C480.254 584.129 483.758 580.465 483.758 575.962V422.764C483.758 418.261 480.254 414.597 475.947 414.597H334.209Z" fill="#3F3D56"/>
<path d="M410.672 544.818H398.99C397.567 544.818 396.41 543.884 396.41 542.736V490.15C396.41 489.002 397.567 488.068 398.99 488.068H410.672C412.094 488.068 413.251 489.002 413.251 490.15V542.736C413.251 543.884 412.094 544.818 410.672 544.818Z" fill="white"/>
<path d="M372.05 513.828C370.901 513.828 369.966 514.583 369.966 515.51V542.678C369.966 543.605 370.901 544.36 372.05 544.36H383.732C384.881 544.36 385.816 543.605 385.816 542.678V515.51C385.816 514.583 384.881 513.828 383.732 513.828H372.05Z" fill="white"/>
<path d="M437.612 544.818H425.929C424.507 544.818 423.35 543.884 423.35 542.736V456.556C423.35 455.408 424.507 454.474 425.929 454.474H437.612C439.034 454.474 440.191 455.408 440.191 456.556V542.736C440.191 543.884 439.034 544.818 437.612 544.818Z" fill="white"/>
<path d="M186.222 167.057H172.878C171.253 167.057 169.931 165.991 169.931 164.68V104.61C169.931 103.299 171.253 102.232 172.878 102.232H186.222C187.847 102.232 189.168 103.299 189.168 104.61V164.68C189.168 165.991 187.847 167.057 186.222 167.057Z" fill="white"/>
<path d="M142.105 131.658C140.792 131.658 139.724 132.52 139.724 133.579V164.613C139.724 165.672 140.792 166.534 142.105 166.534H155.449C156.762 166.534 157.83 165.672 157.83 164.613V133.579C157.83 132.52 156.762 131.658 155.449 131.658H142.105Z" fill="white"/>
<path d="M216.995 167.057H203.651C202.026 167.057 200.704 165.991 200.704 164.679V66.2368C200.704 64.9256 202.026 63.8589 203.651 63.8589H216.995C218.62 63.8589 219.941 64.9255 219.941 66.2368V164.679C219.941 165.991 218.62 167.057 216.995 167.057Z" fill="white"/>
<path d="M383.349 435.952C390.26 435.26 395.02 425.495 393.98 414.136C393.624 409.592 392.233 405.204 389.922 401.338L388.59 388.482L388.794 388.418L392.142 327.461C392.921 313.288 387.555 299.361 377.217 290.158C371.067 284.683 364.506 281.911 360.287 288.829C353.287 300.307 362.354 347.623 368.309 374.523L370.618 403.27C369.049 407.525 368.479 412.111 368.954 416.644C369.992 427.999 376.437 436.644 383.349 435.952Z" fill="#FFB6B6"/>
<path d="M345.075 166.335C345.075 166.335 365.247 158.223 374.558 182.559C383.868 206.895 393.954 326.952 393.954 326.952L346.627 318.029L345.075 166.335Z" fill="#E6E6E6"/>
<path d="M68.0842 154.432H40.9219C39.1092 154.432 37.6343 152.89 37.6343 150.995C37.6343 149.1 39.1092 147.558 40.9219 147.558H68.0842C69.8969 147.558 71.3711 149.1 71.3711 150.995C71.3711 152.89 69.8969 154.432 68.0842 154.432Z" fill="#E6E6E6"/>
<path d="M68.0842 105.711H40.9219C39.1092 105.711 37.6343 104.169 37.6343 102.274C37.6343 100.378 39.1092 98.8369 40.9219 98.8369H68.0842C69.8969 98.8369 71.3711 100.378 71.3711 102.274C71.3711 104.169 69.8969 105.711 68.0842 105.711Z" fill="#E6E6E6"/>
<path d="M68.0842 70.5757H40.9219C39.1092 70.5757 37.6343 69.0335 37.6343 67.1383C37.6343 65.2431 39.1092 63.7017 40.9219 63.7017H68.0842C69.8969 63.7017 71.3711 65.2431 71.3711 67.1383C71.3711 69.0335 69.8969 70.5757 68.0842 70.5757Z" fill="#E6E6E6"/>
<path d="M36.5444 167.228C36.5444 167.845 37.0187 168.341 37.6093 168.341H220.4C220.99 168.341 221.465 167.845 221.465 167.228C221.465 166.61 220.99 166.114 220.4 166.114H37.6093C37.0187 166.114 36.5444 166.61 36.5444 167.228Z" fill="#3F3D56"/>
<path d="M389.08 455.366C389.08 455.984 389.554 456.479 390.145 456.479H572.935C573.526 456.479 574 455.984 574 455.366C574 454.749 573.526 454.253 572.935 454.253H390.145C389.554 454.253 389.08 454.749 389.08 455.366Z" fill="#3F3D56"/>
<path d="M335.394 546.111C335.394 546.729 335.868 547.225 336.459 547.225H519.249C519.84 547.225 520.314 546.729 520.314 546.111C520.314 545.494 519.84 544.998 519.249 544.998H336.459C335.868 544.998 335.394 545.494 335.394 546.111Z" fill="#3F3D56"/>
<path d="M212.476 161.599C205.564 162.291 200.805 172.056 201.845 183.415C202.201 187.959 203.592 192.347 205.902 196.213L207.235 209.069L207.031 209.133L203.682 270.089C202.904 284.263 208.27 298.189 218.608 307.393C224.758 312.868 231.319 315.64 235.537 308.722C242.538 297.244 233.47 249.928 227.516 223.027L225.207 194.281C226.775 190.026 227.346 185.44 226.871 180.907C225.833 169.551 219.388 160.907 212.476 161.599Z" fill="#FFB6B6"/>
</g>
<defs>
<clipPath id="clip0_124_449">
<rect width="574" height="586" fill="white"/>
</clipPath>
</defs>
</svg>
